<svg width="91" height="23" viewBox="0 0 91 23" fill="none" xmlns="http://www.w3.org/2000/svg">
<path d="M12.0251 16.87L9.54812 18.2172L8.74445 16.4701C8.31102 17.019 7.75801 17.4617 7.12758 17.7644C6.49715 18.0672 5.80592 18.2221 5.10656 18.2172C2.08211 18.2172 0.5 15.713 0.5 11.8383C0.5 7.6336 2.36553 5.36428 5.3434 5.36428C6.73721 5.36428 7.8243 5.88454 8.53286 6.85322V0.662598H11.0836V14.9792L12.0251 16.87ZM8.53091 15.1695V8.58674C7.86832 8.03079 7.03331 7.72204 6.16842 7.71319C4.27765 7.71319 3.16727 9.15359 3.16727 11.8713C3.16727 14.4706 4.20777 15.911 6.11989 15.911C6.97698 15.8972 7.81248 15.6401 8.52897 15.1695H8.53091Z" fill="#CE1126"/>
<path d="M24.6894 12.081H16.3246C16.4896 14.2319 18.1669 15.6723 20.8128 15.6723C22.1581 15.6723 23.6237 15.3889 24.6157 14.8686L23.812 17.4912C22.985 17.9416 21.5912 18.225 19.9858 18.225C16.1829 18.225 13.6787 15.649 13.6787 11.7277C13.6787 7.80638 16.0645 5.37207 19.8674 5.37207C23.0103 5.37207 24.9942 7.16772 24.9942 10.0738C24.9923 10.7542 24.8896 11.4306 24.6894 12.081ZM16.4683 10.3106H22.4861C22.3677 8.46641 21.4941 7.59285 19.8635 7.59285C18.0892 7.58509 16.8662 8.60035 16.4663 10.3028L16.4683 10.3106Z" fill="#CE1126"/>
<path d="M30.9016 17.9046L26.0815 5.6748H28.8944L32.0334 14.2163L32.3886 15.2781H32.4818L32.8429 14.2163L35.9489 5.6748H38.7132L33.9183 17.9046H30.9016Z" fill="#CE1126"/>
<path d="M47.0817 5.69619H52.6104L52.2551 7.65685H46.7284L44.7872 18.6656C44.2436 21.7367 42.1878 22.8937 39.3051 22.8937C38.4285 22.8991 37.5551 22.7881 36.7077 22.5636L36.6592 20.5777C37.4929 20.7179 38.3375 20.7829 39.1828 20.7719C40.9086 20.7719 42.0422 20.0866 42.3024 18.6462L44.2436 7.66073H40.3961L40.7513 5.70008H44.6008L44.7949 4.56445C45.3385 1.51864 47.369 0.359723 50.2304 0.359723C51.1158 0.347993 51.9985 0.459717 52.853 0.691673L52.8996 2.72222C52.0712 2.54086 51.2237 2.46133 50.376 2.48538C48.6755 2.48538 47.5398 3.17064 47.2797 4.62075L47.0817 5.69619Z" fill="#CE1126"/>
<path d="M64.0215 12.081H55.6586C55.8236 14.2319 57.5008 15.6723 60.1468 15.6723C61.492 15.6723 62.9577 15.3889 63.9496 14.8686L63.146 17.4912C62.319 17.9416 60.9252 18.225 59.3198 18.225C55.5169 18.225 53.0127 15.649 53.0127 11.7277C53.0127 7.80638 55.3985 5.37207 59.2014 5.37207C62.3442 5.37207 64.3282 7.16772 64.3282 10.0738C64.3257 10.7543 64.2223 11.4307 64.0215 12.081ZM55.8003 10.3106H61.8182C61.6998 8.46641 60.8262 7.59285 59.1955 7.59285C57.429 7.58509 56.2022 8.60035 55.8003 10.3028V10.3106Z" fill="#CE1126"/>
<path d="M66.7607 17.1768L66.5957 14.4357C67.6828 15.1928 69.6667 15.8548 71.7458 15.8548C73.3279 15.8548 74.4636 15.3578 74.4636 14.2474C74.4636 11.9315 66.8578 14.0824 66.8578 9.35745C66.8578 7.15996 68.5117 5.29443 72.4563 5.29443C74.8654 5.29443 76.7096 5.8768 76.7096 7.34826C76.6846 7.76786 76.5544 8.17442 76.331 8.53048C75.0553 7.97832 73.6813 7.68913 72.2913 7.68021C70.4005 7.68021 69.4086 8.38877 69.4086 9.16915C69.4086 11.223 77.1095 9.42733 77.1095 14.0339C77.1095 16.6099 74.8421 18.2173 71.4643 18.2173C69.8403 18.2085 68.2369 17.8538 66.7607 17.1768Z" fill="#CE1126"/>
<path d="M90.2667 15.3111L89.7464 17.6969C88.7922 18.0418 87.7851 18.2178 86.7705 18.2171C83.7227 18.2171 82.4221 16.6331 82.4221 14.389V7.82176H78.9512V5.67475H82.4221V2.31641H84.9748V5.67475H89.9153V7.82564H84.9748V13.6125C84.9748 15.1965 85.8018 15.9051 87.2422 15.9051C88.0692 15.9012 89.5814 15.7129 90.2667 15.3111Z" fill="#CE1126"/>
</svg>
